<?xml version="1.0" encoding="utf-8"?>
<svg viewBox="299.73602294921875 1614.639892578125 597.7000732421875 597.699951171875" width="597.7000732421875" height="597.699951171875" xmlns="http://www.w3.org/2000/svg"><g transform="matrix(0.9999999999999999, 0, 0, 0.9999999999999999, 172.73606872558594, -32.76028823852542)">
		<g>
			<path d="M 425.79998779296875 1647.4000244140625 L 513.5 1858.5999755859375 L 724.7000122070312 1946.199951171875 L 513.5 2033.9000244140625 L 425.79998779296875 2245.10009765625 L 338.20001220703125 2033.9000244140625 L 127 1946.199951171875 L 338.20001220703125 1858.5999755859375 Z" class="st1" style="fill: rgb(204, 204, 204); opacity: 1;"/>
			<path class="st2" d="M425.8,1647.4v298.8l87.7-87.7L425.8,1647.4z M425.8,2245.1v-298.8l-87.7,87.7L425.8,2245.1z M425.8,1946.2&#10;&#9;&#9;&#9;&#9;l87.7,87.7l211.2-87.7H425.8z M127,1946.2h298.8l-87.7-87.7L127,1946.2z" style="fill: rgb(204, 204, 204); opacity: 1;"/>
		</g>
		<path class="st3" d="M244.4,1946.2l128.2,53.2l53.2,128.2l53.2-128.2l128.2-53.2L479.1,1893l-53.2-128.2L372.6,1893L244.4,1946.2z&#10;&#9;&#9;&#9;" style="fill: rgb(204, 204, 204); opacity: 1;"/>
		<g>
			<path class="st1" d="M314.8,1946.2l78.5,32.6l32.6,78.5l32.6-78.5l78.5-32.6l-78.5-32.6l-32.6-78.5l-32.6,78.5L314.8,1946.2z" style="fill: rgb(204, 204, 204); opacity: 1;"/>
			<path class="st2" d="M425.8,1946.2l32.6,32.6l78.5-32.6H425.8z M314.8,1946.2h111l-32.6-32.6L314.8,1946.2z M425.8,2057.2v-111&#10;&#9;&#9;&#9;&#9;l-32.6,32.6L425.8,2057.2z M425.8,1835.2v111l32.6-32.6L425.8,1835.2z" style="fill: rgb(204, 204, 204); opacity: 1;"/>
		</g>
	</g></svg>