<svg xmlns="http://www.w3.org/2000/svg" width="100%" height="auto" version="1.1" desc="Created with imagetracer.js version 1.2.6" preserveAspectRatio="xMidYMid meet" viewBox="0 0 357 351" style="max-width: 100%; max-height: 70vh;"><path fill="rgb(17,16,18)" stroke="rgb(17,16,18)" stroke-width="1" opacity="0.09019607843137255" d="M 166.5 8 L 169 8.5 L 163 12.5 L 162.5 15 L 162 12.5 L 164.5 9 L 166.5 8 Z "/><path fill="rgb(17,16,18)" stroke="rgb(17,16,18)" stroke-width="1" opacity="0.09019607843137255" d="M 187.5 8 L 193 10.5 L 191.5 10 L 187.5 9 L 187.5 8 Z "/><path fill="rgb(17,16,18)" stroke="rgb(17,16,18)" stroke-width="1" opacity="0.09019607843137255" d="M 167.5 11 L 173 11.5 Q 167.6 10.6 166 13.5 L 165.5 21 L 165 13.5 L 167.5 11 Z "/><path fill="rgb(17,16,18)" stroke="rgb(17,16,18)" stroke-width="1" opacity="0.09019607843137255" d="M 177.5 11 L 183 11.5 L 177.5 12 L 177.5 11 Z "/><path fill="rgb(17,16,18)" stroke="rgb(17,16,18)" stroke-width="1" opacity="0.09019607843137255" d="M 184.5 11 L 189 11.5 L 184.5 12 L 184.5 11 Z "/><path fill="rgb(17,16,18)" stroke="rgb(17,16,18)" stroke-width="1" opacity="0.09019607843137255" d="M 190.5 12 L 191.5 144 L 228 108.5 L 190 145.5 L 190.5 12 Z "/><path fill="rgb(17,16,18)" stroke="rgb(17,16,18)" stroke-width="1" opacity="0.09019607843137255" d="M 194.5 17 L 195.5 134 L 280 50.5 L 195.5 135 L 194 135 L 194.5 17 Z "/><path fill="rgb(17,16,18)" stroke="rgb(17,16,18)" stroke-width="1" opacity="0.09019607843137255" d="M 165.5 22 L 166 145 L 160 140.5 L 164 142.5 L 165 139.5 L 164 137.5 L 165 136.5 L 165.5 22 Z "/><path fill="rgb(17,16,18)" stroke="rgb(17,16,18)" stroke-width="1" opacity="0.09019607843137255" d="M 67.5 49 L 70 49.5 L 67.5 50 L 53.5 64 L 67.5 49 Z "/><path fill="rgb(17,16,18)" stroke="rgb(17,16,18)" stroke-width="1" opacity="0.09019607843137255" d="M 72.5 49 L 76.5 50 L 160.5 134 L 161.5 104 L 162 133.5 L 160.5 135 L 76.5 51 L 72.5 50 L 72.5 49 Z "/><path fill="rgb(17,16,18)" stroke="rgb(17,16,18)" stroke-width="1" opacity="0.09019607843137255" d="M 287.5 49 L 290 50.5 L 288.5 50 L 287.5 49 Z "/><path fill="rgb(17,16,18)" stroke="rgb(17,16,18)" stroke-width="1" opacity="0.09019607843137255" d="M 70.5 51 L 159 138.5 L 71.5 52 L 65.5 57 L 70.5 51 Z "/><path fill="rgb(17,16,18)" stroke="rgb(17,16,18)" stroke-width="1" opacity="0.09019607843137255" d="M 284.5 51 L 302 67.5 L 291.5 79 L 301 68.5 L 285.5 52 L 281.5 55 L 284.5 51 Z "/><path fill="rgb(17,16,18)" stroke="rgb(17,16,18)" stroke-width="1" opacity="0.09019607843137255" d="M 278.5 57 L 267.5 69 L 278.5 57 Z "/><path fill="rgb(17,16,18)" stroke="rgb(17,16,18)" stroke-width="1" opacity="0.09019607843137255" d="M 63.5 58 L 55.5 67 L 63.5 58 Z "/><path fill="rgb(17,16,18)" stroke="rgb(17,16,18)" stroke-width="1" opacity="0.09019607843137255" d="M 301.5 62 L 304 65.5 L 303 65.5 L 301.5 62 Z "/><path fill="rgb(17,16,18)" stroke="rgb(17,16,18)" stroke-width="1" opacity="0.09019607843137255" d="M 52.5 65 L 54 73.5 L 138 157.5 L 136.5 159 L 18.5 159 L 18.5 158 L 137 157.5 L 53 73.5 Q 50.7 70.6 52.5 65 Z "/><path fill="rgb(17,16,18)" stroke="rgb(17,16,18)" stroke-width="1" opacity="0.09019607843137255" d="M 55.5 69 L 148 161.5 L 148 163 L 16.5 163 L 15.5 164 L 15 162 L 26.5 161 Q 28.3 163.8 34.5 162 Q 36.3 159.3 42.5 161 L 43.5 162 L 146 162 L 146 160.5 L 55.5 69 Z "/><path fill="rgb(17,16,18)" stroke="rgb(17,16,18)" stroke-width="1" opacity="0.09019607843137255" d="M 303.5 70 L 304 72.5 L 220 156.5 L 220 158 L 337 158.5 L 219.5 159 L 218 157.5 L 303 72.5 L 303.5 70 Z "/><path fill="rgb(17,16,18)" stroke="rgb(17,16,18)" stroke-width="1" opacity="0.09019607843137255" d="M 263.5 72 L 260.5 76 L 263.5 72 Z "/><path fill="rgb(17,16,18)" stroke="rgb(17,16,18)" stroke-width="1" opacity="0.09019607843137255" d="M 289.5 80 L 287.5 83 L 289.5 80 Z "/><path fill="rgb(17,16,18)" stroke="rgb(17,16,18)" stroke-width="1" opacity="0.09019607843137255" d="M 251.5 84 L 250.5 86 L 251.5 84 Z "/><path fill="rgb(17,16,18)" stroke="rgb(17,16,18)" stroke-width="1" opacity="0.09019607843137255" d="M 285.5 84 L 272.5 98 L 285.5 84 Z "/><path fill="rgb(17,16,18)" stroke="rgb(17,16,18)" stroke-width="1" opacity="0.09019607843137255" d="M 243.5 92 L 242.5 94 L 243.5 92 Z "/><path fill="rgb(17,16,18)" stroke="rgb(17,16,18)" stroke-width="1" opacity="0.09019607843137255" d="M 240.5 95 L 229.5 107 L 240.5 95 Z "/><path fill="rgb(17,16,18)" stroke="rgb(17,16,18)" stroke-width="1" opacity="0.09019607843137255" d="M 267.5 102 L 264.5 106 L 267.5 102 Z "/><path fill="rgb(17,16,18)" stroke="rgb(17,16,18)" stroke-width="1" opacity="0.09019607843137255" d="M 261.5 108 L 260.5 110 L 261.5 108 Z "/><path fill="rgb(17,16,18)" stroke="rgb(17,16,18)" stroke-width="1" opacity="0.09019607843137255" d="M 212.5 157 L 210 160.5 Q 209.5 163.5 216.5 162 L 219.5 161 L 220.5 162 L 341 162 L 342 166.5 L 341 166.5 L 339.5 163 L 208.5 163 L 208 161.5 L 212.5 157 Z "/><path fill="rgb(17,16,18)" stroke="rgb(17,16,18)" stroke-width="1" opacity="0.09019607843137255" d="M 14.5 159 L 17 159.5 L 13 161.5 L 11.5 166 L 11 163.5 L 14.5 159 Z "/><path fill="rgb(17,16,18)" stroke="rgb(17,16,18)" stroke-width="1" opacity="0.09019607843137255" d="M 342.5 160 L 345 165.5 L 344 165.5 L 342.5 160 Z "/><path fill="rgb(17,16,18)" stroke="rgb(17,16,18)" stroke-width="1" opacity="0.09019607843137255" d="M 14.5 165 L 15 185.5 L 14 185.5 L 14.5 165 Z "/><path fill="rgb(17,16,18)" stroke="rgb(17,16,18)" stroke-width="1" opacity="0.09019607843137255" d="M 341.5 174 L 342 184.5 L 341 184.5 L 341.5 174 Z "/><path fill="rgb(17,16,18)" stroke="rgb(17,16,18)" stroke-width="1" opacity="0.09019607843137255" d="M 344.5 184 L 345 186.5 L 342.5 190 L 343 188.5 L 344.5 184 Z "/><path fill="rgb(17,16,18)" stroke="rgb(17,16,18)" stroke-width="1" opacity="0.09019607843137255" d="M 11.5 185 L 13 189 L 18 190.5 L 15.5 191 L 12 188.5 L 11.5 185 Z "/><path fill="rgb(17,16,18)" stroke="rgb(17,16,18)" stroke-width="1" opacity="0.09019607843137255" d="M 340.5 186 L 341 188 L 209 188.5 L 211.5 192 L 207.5 187 L 339.5 187 L 340.5 186 Z "/><path fill="rgb(17,16,18)" stroke="rgb(17,16,18)" stroke-width="1" opacity="0.09019607843137255" d="M 16.5 187 L 149 187.5 L 55 280.5 L 146.5 188 L 16.5 188 L 16.5 187 Z "/><path fill="rgb(17,16,18)" stroke="rgb(17,16,18)" stroke-width="1" opacity="0.09019607843137255" d="M 135.5 191 Q 138.8 189.9 138 192.5 L 54 276.5 L 53 285.5 L 67.5 300 L 70 300.5 L 67.5 301 L 52 285.5 L 52 278.5 L 137 192.5 L 135.5 191 Z "/><path fill="rgb(17,16,18)" stroke="rgb(17,16,18)" stroke-width="1" opacity="0.09019607843137255" d="M 218 191 L 336 191.5 L 219 192.5 L 304 277.5 L 304 279.5 L 303 279.5 L 303 277.5 L 218 192.5 L 218 191 Z "/><path fill="rgb(17,16,18)" stroke="rgb(17,16,18)" stroke-width="1" opacity="0.09019607843137255" d="M 215.5 195 L 216.5 197 L 215.5 195 Z "/><path fill="rgb(17,16,18)" stroke="rgb(17,16,18)" stroke-width="1" opacity="0.09019607843137255" d="M 165.5 204 L 166 336.5 L 167.5 338 L 188.5 338 L 190 336.5 L 190.5 204 L 206.5 221 L 191 206.5 L 191 337.5 L 189.5 339 L 166.5 339 L 165 337.5 L 165 207.5 L 163.5 207 L 71 298.5 L 165.5 204 Z "/><path fill="rgb(17,16,18)" stroke="rgb(17,16,18)" stroke-width="1" opacity="0.09019607843137255" d="M 160.5 215 L 162 216.5 L 162 333.5 L 161 333.5 L 160.5 216 L 76.5 300 L 72.5 301 L 72.5 300 L 76.5 299 L 160.5 215 Z "/><path fill="rgb(17,16,18)" stroke="rgb(17,16,18)" stroke-width="1" opacity="0.09019607843137255" d="M 194 215 L 195.5 215 L 280.5 300 L 283 300.5 L 280.5 301 L 195 216.5 L 194.5 334 L 194 215 Z "/><path fill="rgb(17,16,18)" stroke="rgb(17,16,18)" stroke-width="1" opacity="0.09019607843137255" d="M 210.5 224 L 211.5 226 L 210.5 224 Z "/><path fill="rgb(17,16,18)" stroke="rgb(17,16,18)" stroke-width="1" opacity="0.09019607843137255" d="M 215.5 229 L 218.5 233 L 215.5 229 Z "/><path fill="rgb(17,16,18)" stroke="rgb(17,16,18)" stroke-width="1" opacity="0.09019607843137255" d="M 250.5 230 L 251.5 232 L 250.5 230 Z "/><path fill="rgb(17,16,18)" stroke="rgb(17,16,18)" stroke-width="1" opacity="0.09019607843137255" d="M 242.5 256 L 243.5 258 L 242.5 256 Z "/><path fill="rgb(17,16,18)" stroke="rgb(17,16,18)" stroke-width="1" opacity="0.09019607843137255" d="M 277.5 257 L 278.5 259 L 277.5 257 Z "/><path fill="rgb(17,16,18)" stroke="rgb(17,16,18)" stroke-width="1" opacity="0.09019607843137255" d="M 285.5 265 L 289.5 270 L 285.5 265 Z "/><path fill="rgb(17,16,18)" stroke="rgb(17,16,18)" stroke-width="1" opacity="0.09019607843137255" d="M 255.5 269 L 263.5 278 L 255.5 269 Z "/><path fill="rgb(17,16,18)" stroke="rgb(17,16,18)" stroke-width="1" opacity="0.09019607843137255" d="M 291.5 271 L 302 282.5 L 284.5 299 L 281.5 295 L 285.5 298 L 301 281.5 L 291.5 271 Z "/><path fill="rgb(17,16,18)" stroke="rgb(17,16,18)" stroke-width="1" opacity="0.09019607843137255" d="M 267.5 281 L 279.5 294 L 267.5 281 Z "/><path fill="rgb(17,16,18)" stroke="rgb(17,16,18)" stroke-width="1" opacity="0.09019607843137255" d="M 54.5 282 L 69.5 298 L 54.5 282 Z "/><path fill="rgb(17,16,18)" stroke="rgb(17,16,18)" stroke-width="1" opacity="0.09019607843137255" d="M 303.5 284 L 304 285.5 L 302 286.5 L 303.5 284 Z "/><path fill="rgb(17,16,18)" stroke="rgb(17,16,18)" stroke-width="1" opacity="0.09019607843137255" d="M 298.5 290 L 294.5 295 L 298.5 290 Z "/><path fill="rgb(17,16,18)" stroke="rgb(17,16,18)" stroke-width="1" opacity="0.09019607843137255" d="M 289.5 299 L 288.5 301 L 287 300.5 L 289.5 299 Z "/><path fill="rgb(17,16,18)" stroke="rgb(17,16,18)" stroke-width="1" opacity="0.09019607843137255" d="M 193.5 336 L 194 338.5 L 191 340.5 L 193.5 336 Z "/><path fill="rgb(17,16,18)" stroke="rgb(17,16,18)" stroke-width="1" opacity="0.09019607843137255" d="M 163.5 339 L 169 341.5 L 166.5 342 L 163.5 339 Z "/><path fill="rgb(0,0,0)" stroke="rgb(0,0,0)" stroke-width="1" opacity="0" d="M 0 0 L 357 0 L 357 351 L 0 351 L 0 0 Z M 167 8 L 167 9 L 169 9 L 167 8 Z M 188 8 L 188 9 L 190 9 L 188 8 Z M 165 9 L 163 12 L 166 10 L 165 9 Z M 168 11 L 165 14 Q 163 20 166 22 L 165 23 L 165 137 L 164 138 L 165 140 L 164 143 L 71 51 L 65 58 L 64 58 L 55 67 L 55 70 L 146 161 L 146 162 L 44 162 L 43 161 Q 36 159 35 162 Q 28 164 27 161 L 15 162 L 14 166 L 14 186 L 17 188 L 147 189 L 54 283 L 71 298 L 72 299 L 164 207 L 165 208 L 165 338 L 167 339 L 190 339 L 191 338 L 191 207 L 285 299 L 302 283 L 209 189 L 341 188 L 342 185 L 342 175 L 341 174 Q 340 168 342 167 L 341 162 L 221 162 L 220 161 L 210 162 L 210 161 L 302 69 L 286 51 L 192 144 L 191 12 L 185 11 L 183 11 Q 178 10 177 12 L 168 11 Z M 163 12 L 162 15 L 163 15 L 163 12 Z M 195 17 L 194 135 L 196 135 L 195 134 L 195 17 Z M 68 49 L 68 50 L 70 50 L 68 49 Z M 73 49 L 73 50 L 75 50 L 73 49 Z M 53 65 L 52 72 L 53 72 L 53 65 Z M 304 70 L 303 73 L 304 73 L 304 70 Z M 162 104 L 161 134 L 162 134 L 162 104 Z M 220 156 Q 217 158 220 159 L 337 159 L 220 158 L 220 156 Z M 19 158 L 19 159 L 137 159 L 19 158 Z M 15 159 L 15 160 L 17 160 L 15 159 Z M 12 163 L 11 166 L 12 166 L 12 163 Z M 345 163 L 344 166 L 345 166 L 345 163 Z M 345 184 L 344 187 L 345 187 L 345 184 Z M 16 190 L 16 191 L 18 191 L 16 190 Z M 136 191 L 137 192 L 138 193 Q 139 190 136 191 Z M 218 191 L 219 193 L 220 192 L 336 192 L 218 191 Z M 194 215 L 195 334 L 195 217 L 196 216 L 194 215 Z M 162 216 L 161 334 L 162 334 L 162 216 Z M 304 277 L 303 280 L 304 280 L 304 277 Z M 53 278 L 52 286 L 53 286 L 53 278 Z M 68 300 L 68 301 L 70 301 L 68 300 Z M 73 300 L 73 301 L 75 301 L 73 300 Z M 281 300 L 281 301 L 283 301 L 281 300 Z M 194 336 L 193 339 L 194 339 L 194 336 Z M 167 341 L 167 342 L 169 342 L 167 341 Z "/><path fill="rgb(225,192,170)" stroke="rgb(225,192,170)" stroke-width="1" opacity="0.9921568627450981" d="M 284.5 53 L 300 67.5 L 247.5 121 L 247 116.5 L 251.5 111 L 246.5 115 Q 243.8 113.7 246 112.5 L 247 106.5 L 245 101.5 L 251 92.5 L 248.5 94 Q 245.5 94.9 247 90.5 L 284.5 53 Z "/><path fill="rgb(225,192,170)" stroke="rgb(225,192,170)" stroke-width="1" opacity="0.9921568627450981" d="M 245.5 92 L 246 94 L 244 93.5 L 245.5 92 Z "/><path fill="rgb(225,192,170)" stroke="rgb(225,192,170)" stroke-width="1" opacity="0.9921568627450981" d="M 242.5 95 Q 246.9 93.5 246 96.5 L 240.5 101 L 239.5 100 L 236 102.5 L 242.5 95 Z "/><path fill="rgb(225,192,170)" stroke="rgb(225,192,170)" stroke-width="1" opacity="0.9921568627450981" d="M 245.5 118 L 246 121 Q 243.3 122.1 244 119.5 L 245.5 118 Z "/><path fill="rgb(225,192,170)" stroke="rgb(225,192,170)" stroke-width="1" opacity="0.9921568627450981" d="M 243.5 122 L 246 122.5 L 234 133.5 Q 233.3 131.3 235.5 132 L 240 125.5 L 239.5 124 L 241 124.5 Q 240.3 122.3 242.5 123 L 243.5 122 Z "/><path fill="rgb(225,192,170)" stroke="rgb(225,192,170)" stroke-width="1" opacity="0.9921568627450981" d="M 252.5 164 Q 258 162.5 259.5 165 L 260.5 164 L 340 164 L 340 185.5 L 339.5 186 L 247 186 L 247.5 183 L 265.5 183 L 265.5 182 Q 253.1 183.2 246 181 L 245 178.5 L 247 178 L 247 173 L 245.5 173 L 246 171.5 Q 244.7 166.9 250.5 169 L 251.5 168 L 271 167.5 L 247 167 Q 245.7 163.3 251.5 165 L 252.5 164 Z "/><path fill="rgb(225,192,170)" stroke="rgb(225,192,170)" stroke-width="1" opacity="0.9921568627450981" d="M 236.5 165 L 245.5 165 L 246 167 L 236.5 166 L 236.5 165 Z "/><path fill="rgb(225,192,170)" stroke="rgb(225,192,170)" stroke-width="1" opacity="0.9921568627450981" d="M 240.5 183 Q 247.8 180.8 246 186 L 238 184.5 L 240.5 183 Z "/><path fill="rgb(225,192,170)" stroke="rgb(225,192,170)" stroke-width="1" opacity="0.9921568627450981" d="M 235.5 217 L 246 227.5 L 246 229 L 241 228 L 241 224.5 L 235.5 217 Z "/><path fill="rgb(225,192,170)" stroke="rgb(225,192,170)" stroke-width="1" opacity="0.9921568627450981" d="M 244.5 230 L 245.5 232 L 244.5 230 Z "/><path fill="rgb(225,192,170)" stroke="rgb(225,192,170)" stroke-width="1" opacity="0.9921568627450981" d="M 247 230 L 248.5 230 L 300 281.5 L 285.5 297 L 247 259.5 Q 245.8 255.8 249.5 257 L 251 257.5 L 246 250.5 L 246 247.5 L 247 244.5 L 246 242.5 L 246.5 241 L 245 240.5 L 246 238.5 L 243 236.5 L 247.5 236 L 250.5 238 L 247 233.5 L 247 230 Z M 257 243 L 259 246 L 260 246 L 257 243 Z "/><path fill="rgb(225,192,170)" stroke="rgb(225,192,170)" stroke-width="1" opacity="0.9921568627450981" d="M 234.5 246 L 240 250 L 240.5 248 L 242 251 L 246 253.5 Q 247.3 257.3 243.5 256 L 234.5 246 Z "/><path fill="rgb(198,177,189)" stroke="rgb(198,177,189)" stroke-width="1" opacity="0.9921568627450981" d="M 173.5 14 L 178 14.5 L 173.5 15 L 173.5 14 Z "/><path fill="rgb(198,177,189)" stroke="rgb(198,177,189)" stroke-width="1" opacity="0.9921568627450981" d="M 179.5 14 L 189 14 L 189 26 L 186 26 L 186 17.5 L 184.5 17 L 181.5 15 Q 179.7 17.5 179.5 14 Z "/><path fill="rgb(198,177,189)" stroke="rgb(198,177,189)" stroke-width="1" opacity="0.9921568627450981" d="M 183.5 18 Q 186.3 19.2 184 20.5 L 185 22.5 Q 183.5 25.5 182 22.5 Q 181.3 18.8 183.5 18 Z "/><path fill="rgb(198,177,189)" stroke="rgb(198,177,189)" stroke-width="1" opacity="0.9921568627450981" d="M 186 27 L 189 27.5 L 189 40 L 186 39.5 L 186 27 Z "/><path fill="rgb(198,177,189)" stroke="rgb(198,177,189)" stroke-width="1" opacity="0.9921568627450981" d="M 183.5 29 L 185 31.5 L 184 36.5 L 183.5 39 L 181 33.5 L 183.5 29 Z "/><path fill="rgb(198,177,189)" stroke="rgb(198,177,189)" stroke-width="1" opacity="0.9921568627450981" d="M 186 41 L 189 41.5 L 189 53 L 186 52.5 L 186 41 Z "/><path fill="rgb(198,177,189)" stroke="rgb(198,177,189)" stroke-width="1" opacity="0.9921568627450981" d="M 183.5 42 L 185 44.5 L 184 48.5 L 184 50.5 L 183.5 52 Q 181.1 49.9 182 44.5 L 183.5 42 Z "/><path fill="rgb(198,177,189)" stroke="rgb(198,177,189)" stroke-width="1" opacity="0.9921568627450981" d="M 186 54 L 189 54.5 L 189 67 L 186 66.5 L 186 54 Z "/><path fill="rgb(198,177,189)" stroke="rgb(198,177,189)" stroke-width="1" opacity="0.9921568627450981" d="M 183.5 56 L 185 58.5 L 184 61.5 L 183.5 65 L 181 60.5 L 183.5 56 Z "/><path fill="rgb(198,177,189)" stroke="rgb(198,177,189)" stroke-width="1" opacity="0.9921568627450981" d="M 274.5 67 L 273.5 69 L 274.5 67 Z "/><path fill="rgb(198,177,189)" stroke="rgb(198,177,189)" stroke-width="1" opacity="0.9921568627450981" d="M 186 68 L 189 68.5 L 189 80 L 186 79.5 L 186 68 Z "/><path fill="rgb(198,177,189)" stroke="rgb(198,177,189)" stroke-width="1" opacity="0.9921568627450981" d="M 183.5 69 L 185 71.5 L 184 75.5 L 184 77.5 L 183.5 79 Q 181.1 76.9 182 71.5 L 183.5 69 Z "/><path fill="rgb(198,177,189)" stroke="rgb(198,177,189)" stroke-width="1" opacity="0.9921568627450981" d="M 183.5 81 L 185 84.5 L 184 86.5 L 184 88.5 L 185 90.5 Q 182.5 92 184 97.5 L 184 99.5 L 185 103.5 L 183.5 106 L 182 98.5 Q 184.5 97 183 91.5 Q 180.5 90 182 84.5 L 183.5 81 Z "/><path fill="rgb(198,177,189)" stroke="rgb(198,177,189)" stroke-width="1" opacity="0.9921568627450981" d="M 186 81 L 189 81.5 L 189 94 L 186 93.5 L 186 81 Z "/><path fill="rgb(198,177,189)" stroke="rgb(198,177,189)" stroke-width="1" opacity="0.9921568627450981" d="M 254.5 88 L 251 92.5 L 245 101.5 L 247 108.5 L 245 113.5 L 246.5 115 L 250.5 111 L 253.5 109 L 247 116.5 Q 249.6 123.8 243.5 122 L 241 123 L 235.5 132 Q 232.9 131.2 234 134.5 L 206 161.5 L 205.5 159 L 205 165.5 L 207.5 164 L 252 164.5 L 247 165 L 247.5 167 L 270.5 167 L 270.5 168 L 251.5 168 L 246 169 L 245 172.5 L 247 173 L 247 178 L 245.5 178 L 246 179.5 Q 245.1 182.5 249.5 181 L 250.5 182 L 266 182.5 L 247 183 L 246.5 186 L 246 183 Q 240.5 181.9 238 184.5 L 243 185.5 L 206.5 186 L 205 185.5 L 205.5 192 L 206.5 188 L 235 216.5 L 241 224.5 L 241 228 L 245.5 229 Q 246.8 226.8 248 229.5 L 247 233.5 L 260 245.5 L 258.5 246 L 250.5 238 Q 248.8 235.2 243.5 236 L 243.5 237 L 246 238.5 L 245 240.5 L 247 241.5 L 246 243.5 L 247 246.5 L 246 250.5 L 255 261.5 L 249.5 257 Q 246.2 255.9 247 258.5 L 246 258.5 Q 246.8 256.3 244.5 257 L 244.5 256 Q 247.1 256.8 246 253.5 L 242 251 L 240.5 248 L 240 249.5 L 240.5 251 L 233.5 246 L 193 205.5 Q 191.9 202.2 194.5 203 L 193.5 201 Q 188 202.5 186.5 200 L 184.5 203 L 182 198.5 L 182 193.5 Q 185 192.5 184 187.5 L 182 183.5 L 182 181.5 L 184 174.5 Q 181.3 172.2 182 166.5 Q 184.7 164.7 183 158.5 L 182 156.5 L 182 154.5 L 184 147.5 Q 180.6 144.7 182 138 L 184 138.5 L 184 145.5 L 185.5 150 L 188.5 149 Q 193.8 150.3 195 147.5 L 193 147 L 193 144.5 L 235.5 102 L 236.5 103 L 239.5 100 L 241.5 100 L 246 96.5 Q 246.8 93.9 243.5 95 L 243.5 94 Q 247.3 95.3 246 91.5 L 247 91.5 Q 245.9 94.8 248.5 94 L 254.5 88 Z M 246 118 L 244 120 Q 243 122 246 121 L 246 118 Z M 237 165 L 237 166 L 246 167 L 246 165 L 237 165 Z "/><path fill="rgb(198,177,189)" stroke="rgb(198,177,189)" stroke-width="1" opacity="0.9921568627450981" d="M 186 95 L 189 95.5 L 189 107 L 186 106.5 L 186 95 Z "/><path fill="rgb(198,177,189)" stroke="rgb(198,177,189)" stroke-width="1" opacity="0.9921568627450981" d="M 186 108 L 189 108.5 L 189 121 L 186 120.5 L 186 108 Z "/><path fill="rgb(198,177,189)" stroke="rgb(198,177,189)" stroke-width="1" opacity="0.9921568627450981" d="M 183.5 109 L 185 111.5 L 184 113.5 L 184 115.5 L 183.5 120 Q 180.9 117.6 182 111.5 L 183.5 109 Z "/><path fill="rgb(198,177,189)" stroke="rgb(198,177,189)" stroke-width="1" opacity="0.9921568627450981" d="M 186 122 L 189 122.5 L 189 134 L 186 133.5 L 186 122 Z "/><path fill="rgb(198,177,189)" stroke="rgb(198,177,189)" stroke-width="1" opacity="0.9921568627450981" d="M 183.5 123 L 184 131.5 L 182 130.5 Q 181.1 125.1 183.5 123 Z "/><path fill="rgb(198,177,189)" stroke="rgb(198,177,189)" stroke-width="1" opacity="0.9921568627450981" d="M 186 135 L 189 135.5 L 189 145.5 L 187 146.5 L 186 144.5 L 186 135 Z "/><path fill="rgb(198,177,189)" stroke="rgb(198,177,189)" stroke-width="1" opacity="0.9921568627450981" d="M 191.5 146 L 192 148 L 190 147.5 L 191.5 146 Z "/><path fill="rgb(198,177,189)" stroke="rgb(198,177,189)" stroke-width="1" opacity="0.9921568627450981" d="M 187.5 203 L 189 204.5 L 189 216 L 186 215.5 L 186 205.5 L 187.5 203 Z "/><path fill="rgb(198,177,189)" stroke="rgb(198,177,189)" stroke-width="1" opacity="0.9921568627450981" d="M 183.5 205 L 184 214.5 L 183 214.5 L 182 210.5 L 182 208.5 L 183.5 205 Z "/><path fill="rgb(198,177,189)" stroke="rgb(198,177,189)" stroke-width="1" opacity="0.9921568627450981" d="M 186 217 L 189 217.5 L 189 229 L 186 228.5 L 186 217 Z "/><path fill="rgb(198,177,189)" stroke="rgb(198,177,189)" stroke-width="1" opacity="0.9921568627450981" d="M 183.5 219 L 185 225.5 Q 183.5 228.5 182 225.5 Q 181.3 220.8 183.5 219 Z "/><path fill="rgb(198,177,189)" stroke="rgb(198,177,189)" stroke-width="1" opacity="0.9921568627450981" d="M 186 230 L 189 230.5 L 189 243 L 186 242.5 L 186 230 Z "/><path fill="rgb(198,177,189)" stroke="rgb(198,177,189)" stroke-width="1" opacity="0.9921568627450981" d="M 183.5 232 L 185 236.5 L 184 238.5 Q 186.3 239.7 183.5 241 L 182 238.5 L 182 236.5 Q 181.3 232.8 183.5 232 Z "/><path fill="rgb(198,177,189)" stroke="rgb(198,177,189)" stroke-width="1" opacity="0.9921568627450981" d="M 186 244 L 189 244.5 L 189 256 L 186 255.5 L 186 244 Z "/><path fill="rgb(198,177,189)" stroke="rgb(198,177,189)" stroke-width="1" opacity="0.9921568627450981" d="M 183.5 245 L 185 247.5 L 184 251.5 L 184.5 253 L 182 253 L 182 247.5 L 183.5 245 Z "/><path fill="rgb(198,177,189)" stroke="rgb(198,177,189)" stroke-width="1" opacity="0.9921568627450981" d="M 186 257 L 189 257.5 L 189 270 L 186 269.5 L 186 257 Z "/><path fill="rgb(198,177,189)" stroke="rgb(198,177,189)" stroke-width="1" opacity="0.9921568627450981" d="M 183.5 259 Q 186.3 260.3 184 261.5 L 185 263.5 L 184 265.5 L 184 267.5 L 183.5 269 L 182 264.5 L 182 262.5 L 183.5 259 Z "/><path fill="rgb(198,177,189)" stroke="rgb(198,177,189)" stroke-width="1" opacity="0.9921568627450981" d="M 186 271 L 189 271.5 L 189 283 L 186 282.5 L 186 271 Z "/><path fill="rgb(198,177,189)" stroke="rgb(198,177,189)" stroke-width="1" opacity="0.9921568627450981" d="M 183.5 272 L 185 274.5 L 184 278.5 Q 186.3 279.8 183.5 281 Q 180.8 279.8 182 274.5 L 183.5 272 Z "/><path fill="rgb(198,177,189)" stroke="rgb(198,177,189)" stroke-width="1" opacity="0.9921568627450981" d="M 186 284 L 189 284.5 L 189 297 L 186 296.5 L 186 284 Z "/><path fill="rgb(198,177,189)" stroke="rgb(198,177,189)" stroke-width="1" opacity="0.9921568627450981" d="M 183.5 286 L 185 288.5 L 184 293.5 Q 182.3 299.8 185 301.5 L 184 303.5 L 185 306.5 L 183.5 310 L 181 304.5 Q 184.2 301.2 183 293.5 L 181 290.5 L 183.5 286 Z "/><path fill="rgb(198,177,189)" stroke="rgb(198,177,189)" stroke-width="1" opacity="0.9921568627450981" d="M 186 298 L 189 298.5 L 189 311 L 186 310.5 L 186 298 Z "/><path fill="rgb(198,177,189)" stroke="rgb(198,177,189)" stroke-width="1" opacity="0.9921568627450981" d="M 186 312 L 189 312.5 L 189 324 L 186 323.5 L 186 312 Z "/><path fill="rgb(198,177,189)" stroke="rgb(198,177,189)" stroke-width="1" opacity="0.9921568627450981" d="M 183.5 313 L 185 315.5 L 183.5 322 Q 180.8 320.8 182 315.5 L 183.5 313 Z "/><path fill="rgb(198,177,189)" stroke="rgb(198,177,189)" stroke-width="1" opacity="0.9921568627450981" d="M 186 325 L 189 325.5 L 189 336 L 179 335.5 L 180 333 Q 182.7 331.9 182 334.5 L 186 331.5 L 186 325 Z "/><path fill="rgb(198,177,189)" stroke="rgb(198,177,189)" stroke-width="1" opacity="0.9921568627450981" d="M 183.5 326 L 185 328.5 L 183.5 332 L 181 330.5 L 183.5 326 Z "/><path fill="rgb(198,177,189)" stroke="rgb(198,177,189)" stroke-width="1" opacity="0.9921568627450981" d="M 170.5 335 L 178 335.5 L 170.5 336 L 170.5 335 Z "/><path fill="rgb(174,162,203)" stroke="rgb(174,162,203)" stroke-width="1" opacity="0.9882352941176471" d="M 167 13 L 189 13.5 L 179 14.5 L 182.5 16 L 186 17 L 186 25.5 L 188.5 26 L 188.5 27 L 186 27.5 L 186 40 L 189 40.5 L 186 41 L 186 52.5 L 188.5 53 L 188.5 54 L 186 54.5 L 186 67 L 189 67.5 L 186 68 L 186 79.5 L 188.5 80 L 188.5 81 L 186 81.5 L 186 94 L 189 94.5 L 186 95 L 186 106.5 L 188.5 107 L 188.5 108 L 186 108.5 L 186 121 L 189 121.5 L 186 122 L 186 133.5 L 188.5 134 L 188.5 135 L 186 135.5 L 186 144.5 L 187.5 147 L 190.5 146 L 190.5 148 Q 193.1 148.8 192 145.5 L 193 145.5 Q 192.3 147.8 194.5 147 L 193.5 149 Q 188.7 147.7 187.5 150 L 185 149.5 L 184 138 Q 180.5 136.9 182 144.5 Q 184.6 145.9 184 150.5 L 182 154.5 L 182 156.5 L 183 165.5 L 182 170.5 L 184 177.5 L 182 181.5 L 182 183.5 Q 184.7 185.8 184 191.5 Q 180.8 192.8 182 198.5 L 184.5 203 L 186.5 200 Q 188 202.5 193.5 201 L 195 202.5 L 193 203 L 193 205.5 L 216 228.5 L 192 205.5 L 191.5 203 L 188.5 204 L 187 203.5 L 186 205.5 L 186 216 L 189 216.5 L 186 217 L 186 228.5 L 188.5 229 L 188.5 230 L 186 230.5 L 186 243 L 189 243.5 L 186 244 L 186 255.5 L 188.5 256 L 188.5 257 L 186 257.5 L 186 270 L 189 270.5 L 186 271 L 186 282.5 L 188.5 283 L 188.5 284 L 186 284.5 L 186 297 L 189 297.5 L 186 298 L 186 310.5 L 188.5 311 L 188.5 312 L 186 312.5 L 186 324 L 189 324.5 L 186 325 Q 187.8 333 182.5 335 L 182 333 Q 179.3 331.9 180 334.5 L 179.5 336 L 189 336.5 L 167 337 L 167 204.5 L 168 203.5 L 165.5 203 L 98 269.5 L 99 264.5 L 95 267.5 L 97 268 Q 98 271 95 270 L 94.5 268 L 91.5 272 L 96.5 271 L 85.5 283 Q 82.9 283.8 84 280.5 L 88.5 275 Q 90.8 275.8 90 273.5 L 90.5 272 L 76.5 284 L 74 276.5 Q 76.8 274.8 76 269.5 L 90 253.5 L 86.5 256 Q 82.8 257.3 84 253.5 L 93.5 244 L 97 244 L 97.5 246 L 99.5 243 Q 96.5 243.9 98 239.5 L 150.5 186 L 98.5 186 L 98 183 L 127 182.5 L 82.5 182 L 79.5 181 L 77.5 182 L 75 181 L 76 172.5 L 74 169.5 L 84.5 169 L 85.5 168 L 113 167.5 L 98 167 L 98.5 164 L 150.5 164 L 151 162 L 149.5 162 L 98 110.5 Q 96.8 106.8 100.5 108 L 99.5 106 L 98 106.5 Q 100.8 104.8 96.5 103 L 96 104.5 L 97 107 L 94.5 107 L 84 96.5 Q 83.1 93.5 87.5 95 L 90 96.5 L 78 83.5 L 74 73.5 L 76.5 66 L 88 75 Q 86.9 77.7 89.5 77 L 92 78.5 L 88.5 74 L 85 71.5 L 84 68.5 L 84.5 66 L 97 78.5 L 97 80 L 92.5 79 L 98.5 86 L 99 84.5 L 98 81 L 99.5 81 L 165.5 147 L 167 147 L 167 13 Z M 174 14 L 174 15 L 178 15 L 174 14 Z M 184 18 Q 181 19 182 23 Q 184 26 185 23 L 184 21 Q 186 19 184 18 Z M 184 29 L 181 34 L 184 39 L 184 37 L 185 32 L 184 29 Z M 184 42 L 182 45 Q 181 50 184 52 L 184 51 L 184 49 L 185 45 L 184 42 Z M 184 56 L 181 61 L 184 65 L 184 62 L 185 59 L 184 56 Z M 184 69 L 182 72 Q 181 77 184 79 L 184 78 L 184 76 L 185 72 L 184 69 Z M 184 81 L 182 85 Q 181 90 183 92 Q 185 97 182 99 L 184 106 L 185 104 L 184 100 L 184 98 Q 183 92 185 91 L 184 89 L 184 87 L 185 85 L 184 81 Z M 101 87 L 102 89 Q 103 86 101 87 Z M 103 89 L 105 92 L 105 91 L 103 89 Z M 108 94 L 109 96 Q 110 93 108 94 Z M 91 97 L 90 99 L 93 100 L 91 97 Z M 184 109 L 182 112 Q 181 118 184 120 L 184 116 L 184 114 L 185 112 L 184 109 Z M 105 111 Q 103 114 106 113 L 105 111 Z M 184 123 Q 181 125 182 131 L 184 132 L 184 123 Z M 184 205 L 182 209 L 182 211 L 183 215 L 184 215 L 184 205 Z M 184 219 Q 181 221 182 226 Q 184 229 185 226 L 184 219 Z M 110 231 L 110 233 L 112 232 L 110 231 Z M 184 232 Q 181 233 182 237 L 182 239 L 184 241 Q 186 240 184 239 L 185 237 L 184 232 Z M 184 245 L 182 248 L 182 253 L 185 253 L 184 252 L 185 248 L 184 245 Z M 92 250 L 90 253 L 93 251 L 92 250 Z M 111 252 L 109 254 L 111 254 L 111 252 Z M 108 255 L 106 257 L 108 257 L 108 255 Z M 184 259 L 182 263 L 182 265 L 184 269 L 184 268 L 184 266 L 185 264 L 184 262 Q 186 260 184 259 Z M 102 261 L 100 263 L 102 263 L 102 261 Z M 184 272 L 182 275 Q 181 280 184 281 Q 186 280 184 279 L 185 275 L 184 272 Z M 184 286 L 181 291 L 183 294 Q 184 301 181 305 L 184 310 L 185 307 L 184 304 L 185 302 Q 182 300 184 294 L 185 289 L 184 286 Z M 184 313 L 182 316 Q 181 321 184 322 L 185 316 L 184 313 Z M 184 326 L 181 331 L 184 332 L 185 329 L 184 326 Z M 171 335 L 171 336 L 178 336 L 171 335 Z "/><path fill="rgb(174,162,203)" stroke="rgb(174,162,203)" stroke-width="1" opacity="0.9882352941176471" d="M 284.5 52 L 260.5 77 L 284.5 52 Z "/><path fill="rgb(174,162,203)" stroke="rgb(174,162,203)" stroke-width="1" opacity="0.9882352941176471" d="M 72.5 54 L 83 64.5 L 83 67 L 79 65.5 L 75.5 61 L 71 58.5 L 72 55.5 L 72.5 54 Z "/><path fill="rgb(174,162,203)" stroke="rgb(174,162,203)" stroke-width="1" opacity="0.9882352941176471" d="M 69.5 55 L 69 56.5 Q 69.8 58.8 67.5 58 L 59 65.5 L 69.5 55 Z "/><path fill="rgb(174,162,203)" stroke="rgb(174,162,203)" stroke-width="1" opacity="0.9882352941176471" d="M 300.5 68 L 248.5 121 L 300.5 68 Z "/><path fill="rgb(174,162,203)" stroke="rgb(174,162,203)" stroke-width="1" opacity="0.9882352941176471" d="M 59.5 71 L 65.5 78 L 59.5 71 Z "/><path fill="rgb(174,162,203)" stroke="rgb(174,162,203)" stroke-width="1" opacity="0.9882352941176471" d="M 68.5 78 L 67.5 80 L 68.5 78 Z "/><path fill="rgb(174,162,203)" stroke="rgb(174,162,203)" stroke-width="1" opacity="0.9882352941176471" d="M 258.5 78 L 247.5 90 L 258.5 78 Z "/><path fill="rgb(174,162,203)" stroke="rgb(174,162,203)" stroke-width="1" opacity="0.9882352941176471" d="M 71 82 L 75 82 Q 73.9 84.7 76.5 84 L 78 87 L 81 88.5 L 83 94 L 81.5 94 L 71 83.5 L 71 82 Z "/><path fill="rgb(174,162,203)" stroke="rgb(174,162,203)" stroke-width="1" opacity="0.9882352941176471" d="M 84.5 92 L 85.5 94 Q 82.7 94.7 84.5 92 Z "/><path fill="rgb(174,162,203)" stroke="rgb(174,162,203)" stroke-width="1" opacity="0.9882352941176471" d="M 241.5 95 L 239.5 98 L 241.5 95 Z "/><path fill="rgb(174,162,203)" stroke="rgb(174,162,203)" stroke-width="1" opacity="0.9882352941176471" d="M 245.5 123 L 235.5 134 L 245.5 123 Z "/><path fill="rgb(174,162,203)" stroke="rgb(174,162,203)" stroke-width="1" opacity="0.9882352941176471" d="M 231.5 137 L 221.5 148 L 231.5 137 Z "/><path fill="rgb(174,162,203)" stroke="rgb(174,162,203)" stroke-width="1" opacity="0.9882352941176471" d="M 218.5 150 L 208.5 161 L 218.5 150 Z "/><path fill="rgb(174,162,203)" stroke="rgb(174,162,203)" stroke-width="1" opacity="0.9882352941176471" d="M 205.5 159 L 207 162.5 L 205.5 166 L 205.5 159 Z "/><path fill="rgb(174,162,203)" stroke="rgb(174,162,203)" stroke-width="1" opacity="0.9882352941176471" d="M 69.5 164 L 70 166 L 65 165.5 L 69.5 164 Z "/><path fill="rgb(174,162,203)" stroke="rgb(174,162,203)" stroke-width="1" opacity="0.9882352941176471" d="M 72.5 164 L 74.5 164 L 83 164 L 83 167 L 71.5 167 L 71 165.5 L 72.5 164 Z "/><path fill="rgb(174,162,203)" stroke="rgb(174,162,203)" stroke-width="1" opacity="0.9882352941176471" d="M 84 164 L 96.5 164 L 97 167 L 84.5 167 L 84 164 Z "/><path fill="rgb(174,162,203)" stroke="rgb(174,162,203)" stroke-width="1" opacity="0.9882352941176471" d="M 67.5 183 L 68.5 185 Q 65.7 185.7 67.5 183 Z "/><path fill="rgb(174,162,203)" stroke="rgb(174,162,203)" stroke-width="1" opacity="0.9882352941176471" d="M 72.5 183 L 82.5 183 L 83 186 L 72.5 186 L 71 184.5 L 72.5 183 Z "/><path fill="rgb(174,162,203)" stroke="rgb(174,162,203)" stroke-width="1" opacity="0.9882352941176471" d="M 84 183 L 96.5 183 L 97 186 L 84.5 186 L 84 183 Z "/><path fill="rgb(174,162,203)" stroke="rgb(174,162,203)" stroke-width="1" opacity="0.9882352941176471" d="M 205.5 185 L 207 187.5 L 206 191.5 L 206.5 193 Q 203.1 191.1 205.5 185 Z "/><path fill="rgb(174,162,203)" stroke="rgb(174,162,203)" stroke-width="1" opacity="0.9882352941176471" d="M 209.5 190 L 218.5 200 L 209.5 190 Z "/><path fill="rgb(174,162,203)" stroke="rgb(174,162,203)" stroke-width="1" opacity="0.9882352941176471" d="M 222.5 203 L 231.5 213 L 222.5 203 Z "/><path fill="rgb(174,162,203)" stroke="rgb(174,162,203)" stroke-width="1" opacity="0.9882352941176471" d="M 233.5 214 L 300.5 282 L 233.5 214 Z "/><path fill="rgb(174,162,203)" stroke="rgb(174,162,203)" stroke-width="1" opacity="0.9882352941176471" d="M 217.5 230 L 218.5 232 L 217.5 230 Z "/><path fill="rgb(174,162,203)" stroke="rgb(174,162,203)" stroke-width="1" opacity="0.9882352941176471" d="M 220.5 233 L 229.5 243 L 220.5 233 Z "/><path fill="rgb(174,162,203)" stroke="rgb(174,162,203)" stroke-width="1" opacity="0.9882352941176471" d="M 96.5 241 L 97 243 L 95 242.5 L 96.5 241 Z "/><path fill="rgb(174,162,203)" stroke="rgb(174,162,203)" stroke-width="1" opacity="0.9882352941176471" d="M 233.5 246 L 245.5 259 L 233.5 246 Z "/><path fill="rgb(174,162,203)" stroke="rgb(174,162,203)" stroke-width="1" opacity="0.9882352941176471" d="M 80.5 257 Q 84.3 255.8 83 259.5 L 79 262 L 77.5 265 L 75 266.5 L 73.5 269 L 71 267.5 L 80.5 257 Z "/><path fill="rgb(174,162,203)" stroke="rgb(174,162,203)" stroke-width="1" opacity="0.9882352941176471" d="M 247.5 260 L 284.5 298 L 247.5 260 Z "/><path fill="rgb(174,162,203)" stroke="rgb(174,162,203)" stroke-width="1" opacity="0.9882352941176471" d="M 69.5 268 L 68.5 270 L 69.5 268 Z "/><path fill="rgb(174,162,203)" stroke="rgb(174,162,203)" stroke-width="1" opacity="0.9882352941176471" d="M 66.5 272 L 65.5 274 L 64 273.5 L 66.5 272 Z "/><path fill="rgb(174,162,203)" stroke="rgb(174,162,203)" stroke-width="1" opacity="0.9882352941176471" d="M 80.5 284 Q 83.8 282.9 83 285.5 L 71 296.5 L 72 291 L 74 291 Q 72.9 288.3 75.5 289 L 77 286 L 80.5 284 Z "/><path fill="rgb(174,162,203)" stroke="rgb(174,162,203)" stroke-width="1" opacity="0.9882352941176471" d="M 60.5 285 L 69.5 295 L 60.5 285 Z "/><path fill="rgb(131,131,196)" stroke="rgb(131,131,196)" stroke-width="1" opacity="0.9294117647058824" d="M 167.5 12 L 189.5 12 L 190 12.5 L 190 145.5 L 189 145.5 L 189 13.5 L 188.5 13 L 167 13 L 167 146.5 L 165.5 147 L 99.5 81 L 98 81 L 100.5 87 L 103.5 89 L 107.5 94 L 110.5 96 L 110.5 97 L 89.5 77 L 88 77 Q 89.1 74.3 86.5 75 L 76.5 66 L 74 74.5 L 78 83.5 L 106 112.5 L 104 113 L 100.5 108 Q 96.8 106.8 98 110.5 L 149.5 162 L 151 162 L 150.5 164 L 98.5 164 L 98 167 L 113 167.5 L 85.5 168 L 84.5 169 L 74 169.5 Q 77 171.5 76 177.5 L 75 181 L 78.5 182 L 81.5 181 L 82.5 182 L 127 182.5 L 98 183 L 98.5 186 L 150.5 186 L 98 239.5 Q 96.5 243.9 99.5 243 L 110 232.5 L 110 231 Q 112.7 232.1 112 229.5 L 113 229.5 L 79 265.5 L 76 269.5 Q 76.7 275.2 74 277.5 L 76.5 284 L 110.5 252 L 111 254 L 108 255.5 Q 108.8 257.8 106.5 257 L 102 263 L 99 264.5 L 98 269.5 L 165.5 203 L 168 203.5 L 167 204.5 L 167 337 L 188.5 337 L 189 336.5 L 189 204.5 L 190 204.5 L 190 336.5 L 188.5 338 L 167.5 338 L 166 336.5 L 165.5 204 L 70.5 298 L 55 281.5 L 148.5 187 L 15.5 187 L 15 186.5 L 15 164.5 L 16.5 163 L 148 163 L 148 161.5 L 55 67.5 L 71.5 52 L 158.5 139 L 160 139 L 164.5 145 L 166 144.5 L 166 13.5 L 167.5 12 Z M 73 54 L 72 56 L 71 59 L 76 61 L 79 66 L 83 67 L 83 65 L 73 54 Z M 69 56 L 67 58 L 69 58 L 69 56 Z M 86 67 L 84 69 L 85 72 L 89 74 L 92 79 L 97 80 L 97 79 L 86 67 Z M 71 82 L 71 84 L 82 94 L 83 94 L 81 89 L 78 87 L 77 84 Q 74 85 75 82 L 71 82 Z M 85 92 Q 83 95 86 94 L 85 92 Z M 84 95 L 84 97 L 95 107 L 97 107 L 96 104 L 92 100 L 90 98 Q 89 94 84 95 Z M 70 164 L 65 166 L 70 166 L 70 164 Z M 73 164 L 71 166 L 72 167 L 83 167 L 83 164 L 75 164 L 73 164 Z M 84 164 L 85 167 L 97 167 L 97 164 L 84 164 Z M 68 183 Q 66 186 69 185 L 68 183 Z M 73 183 L 71 185 L 73 186 L 83 186 L 83 183 L 73 183 Z M 84 183 L 85 186 L 97 186 L 97 183 L 84 183 Z M 97 241 L 95 243 L 97 243 L 97 241 Z M 94 244 L 84 254 Q 83 257 87 256 L 90 252 L 97 246 Q 98 242 94 244 Z M 81 257 L 71 268 L 74 269 L 75 267 L 78 265 L 79 262 L 83 260 Q 84 256 81 257 Z M 95 268 Q 94 271 97 270 Q 98 267 95 268 Z M 94 271 L 90 274 Q 91 276 89 275 Q 84 277 84 283 L 86 283 L 97 272 L 94 271 Z M 81 284 L 77 286 L 76 289 Q 73 288 74 291 L 72 291 L 71 297 L 83 286 Q 84 283 81 284 Z "/><path fill="rgb(131,131,196)" stroke="rgb(131,131,196)" stroke-width="1" opacity="0.9294117647058824" d="M 285.5 52 L 300.5 68 L 285.5 52 Z "/><path fill="rgb(131,131,196)" stroke="rgb(131,131,196)" stroke-width="1" opacity="0.9294117647058824" d="M 280.5 55 L 279.5 57 L 280.5 55 Z "/><path fill="rgb(131,131,196)" stroke="rgb(131,131,196)" stroke-width="1" opacity="0.9294117647058824" d="M 255.5 80 L 252.5 84 L 255.5 80 Z "/><path fill="rgb(131,131,196)" stroke="rgb(131,131,196)" stroke-width="1" opacity="0.9294117647058824" d="M 247.5 88 L 247 89.5 L 242.5 95 L 241 94.5 L 244 92.5 L 246 89.5 L 247.5 88 Z "/><path fill="rgb(131,131,196)" stroke="rgb(131,131,196)" stroke-width="1" opacity="0.9294117647058824" d="M 238.5 98 L 191.5 146 L 228 108.5 Q 227.3 106.3 229.5 107 L 238.5 98 Z "/><path fill="rgb(131,131,196)" stroke="rgb(131,131,196)" stroke-width="1" opacity="0.9294117647058824" d="M 271.5 98 L 268.5 102 L 271.5 98 Z "/><path fill="rgb(131,131,196)" stroke="rgb(131,131,196)" stroke-width="1" opacity="0.9294117647058824" d="M 263.5 106 L 262.5 108 L 263.5 106 Z "/><path fill="rgb(131,131,196)" stroke="rgb(131,131,196)" stroke-width="1" opacity="0.9294117647058824" d="M 124.5 110 L 125.5 112 L 124.5 110 Z "/><path fill="rgb(131,131,196)" stroke="rgb(131,131,196)" stroke-width="1" opacity="0.9294117647058824" d="M 259.5 110 L 248.5 122 Q 246.3 121.3 247 123.5 L 221.5 149 L 220 149 L 213.5 157 L 219 150.5 L 220.5 148 L 232 137.5 L 234.5 134 L 246 123.5 L 247.5 121 L 259.5 110 Z "/><path fill="rgb(131,131,196)" stroke="rgb(131,131,196)" stroke-width="1" opacity="0.9294117647058824" d="M 108.5 115 L 109.5 117 L 108.5 115 Z "/><path fill="rgb(131,131,196)" stroke="rgb(131,131,196)" stroke-width="1" opacity="0.9294117647058824" d="M 137.5 123 L 138.5 125 L 137.5 123 Z "/><path fill="rgb(131,131,196)" stroke="rgb(131,131,196)" stroke-width="1" opacity="0.9294117647058824" d="M 118.5 126 L 121.5 130 L 118.5 126 Z "/><path fill="rgb(131,131,196)" stroke="rgb(131,131,196)" stroke-width="1" opacity="0.9294117647058824" d="M 147.5 133 L 149.5 136 L 147.5 133 Z "/><path fill="rgb(131,131,196)" stroke="rgb(131,131,196)" stroke-width="1" opacity="0.9294117647058824" d="M 207.5 161 L 208 163 L 339.5 163 L 341 164.5 L 340.5 166 L 340 164 L 206 163.5 L 207.5 161 Z "/><path fill="rgb(131,131,196)" stroke="rgb(131,131,196)" stroke-width="1" opacity="0.9294117647058824" d="M 340.5 175 L 341 185.5 L 339.5 187 L 207.5 187 L 207.5 186 L 339.5 186 L 340 185.5 L 340.5 175 Z "/><path fill="rgb(131,131,196)" stroke="rgb(131,131,196)" stroke-width="1" opacity="0.9294117647058824" d="M 207.5 188 L 208.5 190 L 207.5 188 Z "/><path fill="rgb(131,131,196)" stroke="rgb(131,131,196)" stroke-width="1" opacity="0.9294117647058824" d="M 212.5 192 L 214.5 195 L 212.5 192 Z "/><path fill="rgb(131,131,196)" stroke="rgb(131,131,196)" stroke-width="1" opacity="0.9294117647058824" d="M 217.5 197 L 249.5 230 L 233.5 214 L 232 214 L 232 212.5 L 222.5 203 L 221 203 L 221 201 Q 218.3 202.1 219 199.5 L 217.5 197 Z "/><path fill="rgb(131,131,196)" stroke="rgb(131,131,196)" stroke-width="1" opacity="0.9294117647058824" d="M 132.5 209 L 131.5 211 L 132.5 209 Z "/><path fill="rgb(131,131,196)" stroke="rgb(131,131,196)" stroke-width="1" opacity="0.9294117647058824" d="M 125.5 216 L 124.5 218 L 125.5 216 Z "/><path fill="rgb(131,131,196)" stroke="rgb(131,131,196)" stroke-width="1" opacity="0.9294117647058824" d="M 120.5 221 L 118.5 224 L 120.5 221 Z "/><path fill="rgb(131,131,196)" stroke="rgb(131,131,196)" stroke-width="1" opacity="0.9294117647058824" d="M 207.5 221 L 209.5 224 L 207.5 221 Z "/><path fill="rgb(131,131,196)" stroke="rgb(131,131,196)" stroke-width="1" opacity="0.9294117647058824" d="M 212.5 226 L 214.5 229 L 212.5 226 Z "/><path fill="rgb(131,131,196)" stroke="rgb(131,131,196)" stroke-width="1" opacity="0.9294117647058824" d="M 219.5 232 L 228 241.5 L 219 233.5 L 219.5 232 Z "/><path fill="rgb(131,131,196)" stroke="rgb(131,131,196)" stroke-width="1" opacity="0.9294117647058824" d="M 252.5 232 L 265.5 246 L 252.5 232 Z "/><path fill="rgb(131,131,196)" stroke="rgb(131,131,196)" stroke-width="1" opacity="0.9294117647058824" d="M 128.5 235 L 127.5 237 L 128.5 235 Z "/><path fill="rgb(131,131,196)" stroke="rgb(131,131,196)" stroke-width="1" opacity="0.9294117647058824" d="M 125.5 238 L 124.5 240 L 125.5 238 Z "/><path fill="rgb(131,131,196)" stroke="rgb(131,131,196)" stroke-width="1" opacity="0.9294117647058824" d="M 229.5 243 L 233 245.5 L 242 255.5 L 229.5 243 Z "/><path fill="rgb(131,131,196)" stroke="rgb(131,131,196)" stroke-width="1" opacity="0.9294117647058824" d="M 269.5 249 L 276.5 257 L 269.5 249 Z "/><path fill="rgb(131,131,196)" stroke="rgb(131,131,196)" stroke-width="1" opacity="0.9294117647058824" d="M 244.5 258 L 247 259 L 246.5 261 L 244.5 258 Z "/><path fill="rgb(131,131,196)" stroke="rgb(131,131,196)" stroke-width="1" opacity="0.9294117647058824" d="M 279.5 259 L 280.5 261 L 279.5 259 Z "/><path fill="rgb(131,131,196)" stroke="rgb(131,131,196)" stroke-width="1" opacity="0.9294117647058824" d="M 248.5 262 L 250.5 265 L 248.5 262 Z "/><path fill="rgb(131,131,196)" stroke="rgb(131,131,196)" stroke-width="1" opacity="0.9294117647058824" d="M 282.5 262 L 284.5 265 L 282.5 262 Z "/><path fill="rgb(131,131,196)" stroke="rgb(131,131,196)" stroke-width="1" opacity="0.9294117647058824" d="M 264.5 278 L 266.5 281 L 264.5 278 Z "/><path fill="rgb(131,131,196)" stroke="rgb(131,131,196)" stroke-width="1" opacity="0.9294117647058824" d="M 300.5 282 L 285.5 298 L 300.5 282 Z "/></svg>